<svg width="54" height="60" viewBox="0 0 54 60" fill="none" xmlns="http://www.w3.org/2000/svg">
<path d="M50.8264 28.0652C50.2887 27.1347 49.0292 27.2765 48.6717 28.3095C48.6639 28.3325 48.6559 28.3554 48.6479 28.3782C48.1939 29.6774 46.4877 29.4593 46.3108 28.0788C44.1396 11.1468 36.3177 0 26.9999 0C26.9839 0 26.9679 0 26.9519 0.000117647C24.8789 0.00870588 23.4128 2.27341 24.0247 4.48553C24.3063 5.50376 24.4572 6.58635 24.4552 7.70847C24.4448 13.5968 20.156 18.4402 14.8842 18.514C13.9745 18.5267 13.0931 18.3995 12.2563 18.1504C10.974 17.7685 9.64223 18.5622 9.26164 19.9822C8.588 22.496 8.05706 25.2028 7.68882 28.0762C7.51176 29.4578 5.80588 29.6778 5.35165 28.3776C5.34376 28.3549 5.33588 28.3324 5.328 28.3096C4.97059 27.2766 3.71106 27.1348 3.1733 28.0653C1.47965 30.9959 0.529297 34.2859 0.529297 37.7625C0.529297 50.0439 12.3806 60 26.9999 60C27.0175 60 27.0349 59.9994 27.0526 59.9994C27.0598 59.9994 27.0669 59.9996 27.0741 59.9996C27.0942 59.9996 27.1142 59.9987 27.1343 59.9986C41.6916 59.9375 53.4704 50.0061 53.4704 37.7625C53.4704 34.2859 52.5201 30.9959 50.8264 28.0652Z" fill="url(#paint0_linear)"/>
<path d="M15.2087 14.3119C17.086 14.3119 18.6079 12.79 18.6079 10.9127C18.6079 9.03542 17.086 3.43036 15.2087 3.43036C13.3315 3.43036 11.8096 9.03542 11.8096 10.9127C11.8096 12.7901 13.3313 14.3119 15.2087 14.3119Z" fill="url(#paint1_linear)"/>
<path d="M44.5463 41.0767C44.5463 50.7673 36.6905 58.6231 26.9998 58.6231C17.3091 58.6231 9.45337 50.7674 9.45337 41.0767C9.45337 31.386 17.1027 18.1176 26.7933 18.1176C36.4838 18.1176 44.5463 31.3861 44.5463 41.0767Z" fill="url(#paint2_linear)"/>
<path d="M26.7932 18.1176C25.9949 18.1176 25.2106 18.2094 24.4431 18.3801C33.0491 20.2814 39.838 32.1844 39.838 41.0767C39.838 49.9689 33.2229 57.3152 24.6456 58.4654C25.4157 58.5687 26.2014 58.623 26.9997 58.623C36.6903 58.623 44.5462 50.7673 44.5462 41.0766C44.5462 31.3859 36.484 18.1176 26.7932 18.1176Z" fill="url(#paint3_linear)"/>
<path d="M41.1596 42.894C41.1596 50.7141 34.8201 57.0537 27 57.0537C19.1799 57.0537 12.8403 50.7141 12.8403 42.894C12.8403 35.0739 19.1799 26.4519 27 26.4519C34.8201 26.4519 41.1596 35.0739 41.1596 42.894Z" fill="url(#paint4_linear)"/>
<path d="M50.8263 28.0652C50.2886 27.1347 49.0291 27.2765 48.6716 28.3095C48.6638 28.3325 48.6558 28.3554 48.6478 28.3782C48.1938 29.6774 46.4876 29.4593 46.3107 28.0788C44.1395 11.1468 36.3177 0 26.9998 0C26.9838 0 26.9678 0 26.9518 0.000117647C26.402 0.00235294 25.8957 0.164588 25.4586 0.441176C33.3433 2.65847 39.6825 13.1056 41.6025 28.0788C41.7795 29.4593 43.4855 29.6774 43.9395 28.3782C43.9475 28.3553 43.9555 28.3325 43.9634 28.3095C44.3208 27.2765 45.5804 27.1347 46.1181 28.0652C47.8118 30.9959 48.7621 34.2858 48.7621 37.7625C48.7621 49.3788 38.1589 58.9124 24.6401 59.9111C25.4177 59.9688 26.2044 60 26.9998 60C27.0174 60 27.0348 59.9994 27.0525 59.9994C27.0597 59.9994 27.0668 59.9996 27.074 59.9996C27.0941 59.9996 27.1141 59.9987 27.1343 59.9986C41.6915 59.9375 53.4703 50.0061 53.4703 37.7625C53.4703 34.2859 52.52 30.9959 50.8263 28.0652Z" fill="url(#paint5_linear)"/>
<path d="M41.1595 42.894C41.1595 39.9167 40.2398 36.8237 38.6702 34.134C39.4233 36.5011 39.838 38.8807 39.838 41.0767C39.838 47.8453 36.0049 53.7174 30.3914 56.6437C36.5735 55.124 41.1595 49.545 41.1595 42.894Z" fill="url(#paint6_linear)"/>
<path d="M19.612 44.1973L21.2183 42.7121C21.3396 42.5908 21.4002 42.4545 21.4002 42.3029C21.4002 41.8028 20.7789 41.1814 20.2636 41.1814C20.0969 41.1814 19.9302 41.2421 19.8089 41.3633L17.2933 43.8032V37.8627C17.2933 37.4383 16.7629 37.1505 16.0961 37.1505C15.4293 37.1505 14.9443 37.4383 14.9443 37.8627V47.7585C14.9443 48.1222 15.4293 48.4859 16.0961 48.4859C16.7628 48.4859 17.2933 48.1222 17.2933 47.7585V46.3492L18.0661 45.6369L19.8997 48.3495C20.0361 48.5466 20.2332 48.6374 20.4604 48.6374C21.0212 48.6374 21.8092 48.016 21.8092 47.4706C21.8092 47.3493 21.7637 47.2281 21.6879 47.1069L19.612 44.1973Z" fill="url(#paint7_linear)"/>
<path d="M27.341 46.1825C26.9318 46.1825 26.7197 46.5917 25.9013 46.5917C24.9768 46.5917 24.6284 46.1673 24.6284 45.4247V44.3943C24.6284 43.6517 24.977 43.2275 25.8861 43.2275C26.7045 43.2275 26.9773 43.5911 27.341 43.5911C27.8865 43.5911 28.2503 42.8789 28.2503 42.4393C28.2503 41.7726 27.1744 41.1815 25.6892 41.1815C23.3099 41.1815 22.2795 42.5908 22.2795 44.3942V45.4246C22.2795 47.2583 23.31 48.6373 25.7195 48.6373C27.1894 48.6373 28.3413 47.9857 28.3413 47.3037C28.3412 46.8493 27.9774 46.1825 27.341 46.1825Z" fill="url(#paint8_linear)"/>
<path d="M31.8116 41.1815C30.6902 41.1815 29.2202 41.6816 29.2202 42.3939C29.2202 42.9394 29.4929 43.5607 30.0082 43.5607C30.4174 43.5607 30.5385 43.0607 31.7812 43.0607C32.645 43.0607 32.9178 43.6669 32.9178 44.1821V44.3336H32.3723C30.281 44.3336 28.8262 44.8336 28.8262 46.622C28.8262 48.0009 29.7203 48.6375 30.7659 48.6375C31.8268 48.6375 32.5238 48.0616 33.0695 47.4252V47.7586C33.0695 48.1678 33.5241 48.486 34.1151 48.486C34.7819 48.486 35.2669 48.1678 35.2669 47.7586V44.1519C35.2667 42.6212 34.2968 41.1815 31.8116 41.1815ZM32.9178 45.5308C32.9178 46.3036 32.251 46.9251 31.7812 46.9251C31.4326 46.9251 31.1902 46.728 31.1902 46.2886C31.1902 45.5613 31.9934 45.4702 32.8572 45.4702H32.9178V45.5308Z" fill="url(#paint9_linear)"/>
<path d="M37.8734 37.1505C37.1914 37.1505 36.7065 37.4383 36.7065 37.8627V47.7584C36.7065 48.1222 37.1915 48.4858 37.8734 48.4858C38.525 48.4858 39.0553 48.1222 39.0553 47.7584V37.8627C39.0553 37.4385 38.5249 37.1505 37.8734 37.1505Z" fill="url(#paint10_linear)"/>
<path d="M39.0554 47.7586V46.2653C38.8229 47.0171 38.5414 47.747 38.2144 48.4518C38.7002 48.3533 39.0554 48.0562 39.0554 47.7586Z" fill="url(#paint11_linear)"/>
<defs>
<linearGradient id="paint0_linear" x1="-0.882467" y1="30" x2="53.2863" y2="30" gradientUnits="userSpaceOnUse">
<stop stop-color="#FFD744"/>
<stop offset="0.593" stop-color="#FFC800"/>
<stop offset="1" stop-color="#FFC800"/>
</linearGradient>
<linearGradient id="paint1_linear" x1="-0.882553" y1="8.87118" x2="53.2863" y2="8.87118" gradientUnits="userSpaceOnUse">
<stop stop-color="#FFF9DF"/>
<stop offset="0.593" stop-color="#FFE177"/>
<stop offset="1" stop-color="#FEB137"/>
</linearGradient>
<linearGradient id="paint2_linear" x1="8.29396" y1="38.3703" x2="43.8358" y2="38.3703" gradientUnits="userSpaceOnUse">
<stop stop-color="#FFE177"/>
<stop offset="1" stop-color="#FFC800"/>
</linearGradient>
<linearGradient id="paint3_linear" x1="20.9213" y1="38.3703" x2="41.061" y2="38.3703" gradientUnits="userSpaceOnUse">
<stop stop-color="#FFD15B"/>
<stop offset="1" stop-color="#FFC800"/>
</linearGradient>
<linearGradient id="paint4_linear" x1="11.499" y1="41.7527" x2="43.8393" y2="41.7527" gradientUnits="userSpaceOnUse">
<stop stop-color="#FE99A0"/>
<stop offset="0.593" stop-color="#EF2D3B"/>
<stop offset="1" stop-color="#EF2D3B"/>
</linearGradient>
<linearGradient id="paint5_linear" x1="5.2351" y1="30" x2="46.0448" y2="30" gradientUnits="userSpaceOnUse">
<stop stop-color="#FFF9DF"/>
<stop offset="0.593" stop-color="#FFE177"/>
<stop offset="1" stop-color="#FFC800"/>
</linearGradient>
<linearGradient id="paint6_linear" x1="19.5881" y1="45.3889" x2="36.671" y2="45.3889" gradientUnits="userSpaceOnUse">
<stop stop-color="#FE99A0"/>
<stop offset="0.593" stop-color="#FE646F"/>
<stop offset="1" stop-color="#E41F2D"/>
</linearGradient>
<linearGradient id="paint7_linear" x1="15.3528" y1="42.894" x2="41.2522" y2="42.894" gradientUnits="userSpaceOnUse">
<stop stop-color="#F8F6F7"/>
<stop offset="0.1788" stop-color="#F8F6F7"/>
<stop offset="1" stop-color="#E7E6F5"/>
</linearGradient>
<linearGradient id="paint8_linear" x1="15.3528" y1="44.9096" x2="41.2523" y2="44.9096" gradientUnits="userSpaceOnUse">
<stop stop-color="#F8F6F7"/>
<stop offset="0.1788" stop-color="#F8F6F7"/>
<stop offset="1" stop-color="#E7E6F5"/>
</linearGradient>
<linearGradient id="paint9_linear" x1="15.3529" y1="44.9095" x2="41.2523" y2="44.9095" gradientUnits="userSpaceOnUse">
<stop stop-color="#F8F6F7"/>
<stop offset="0.1788" stop-color="#F8F6F7"/>
<stop offset="1" stop-color="#E7E6F5"/>
</linearGradient>
<linearGradient id="paint10_linear" x1="15.353" y1="42.8182" x2="41.2521" y2="42.8182" gradientUnits="userSpaceOnUse">
<stop stop-color="#F8F6F7"/>
<stop offset="0.1788" stop-color="#F8F6F7"/>
<stop offset="1" stop-color="#E7E6F5"/>
</linearGradient>
<linearGradient id="paint11_linear" x1="32.3529" y1="47.3585" x2="36.4722" y2="47.3585" gradientUnits="userSpaceOnUse">
<stop stop-color="#F8F6F7"/>
<stop offset="1" stop-color="#D1CEEB"/>
</linearGradient>
</defs>
</svg>
