<svg width="46" height="59" viewBox="0 0 46 59" fill="none" xmlns="http://www.w3.org/2000/svg">
<path d="M22.4297 21.8888C21.2926 21.8888 20.3709 20.967 20.3709 19.83V17.4063C20.3709 12.5215 18.4686 7.92904 15.0145 4.47492L14.5976 4.05786C13.7936 3.25386 13.7937 1.95022 14.5977 1.14633C15.4017 0.342098 16.7053 0.342452 17.5093 1.14645L17.9262 1.56339C20.0171 3.65445 21.6513 6.1001 22.783 8.8321C23.9148 11.5643 24.4885 14.449 24.4885 17.4063V19.83C24.4885 20.967 23.5668 21.8888 22.4297 21.8888Z" fill="url(#paint0_linear)"/>
<path d="M44.8578 29.5224L42.2108 45.2727C41.2446 50.5706 38.0171 54.9726 33.6335 57.554C31.0138 59.0968 27.8672 59.3639 24.9374 58.5513C24.1809 58.3415 23.3624 58.2267 22.5081 58.2267C21.654 58.2267 20.8353 58.3414 20.0788 58.5513C17.1491 59.3639 14.0025 59.0968 11.3827 57.554C6.99918 54.9726 3.77176 50.5705 2.80541 45.2727L0.1587 29.5224C-0.680594 24.5272 1.86446 19.5002 6.48188 17.4144C7.89129 16.7787 9.45012 16.4258 11.0745 16.4258C11.6785 16.4258 12.2916 16.4733 12.9115 16.5751C16.0879 17.0931 19.2981 17.3511 22.5084 17.3511C25.7186 17.3511 28.9288 17.0932 32.1052 16.5751C34.3879 16.2018 36.6005 16.5412 38.5347 17.4144C43.152 19.5002 45.6971 24.5271 44.8578 29.5224Z" fill="url(#paint1_linear)"/>
<path d="M20.0711 51.3409L0.543701 31.8135L2.80558 45.2726C3.77182 50.5705 6.99935 54.9725 11.3829 57.554C11.9992 57.9169 12.6449 58.2083 13.3098 58.4327C15.2971 57.9442 17.2348 57.1291 19.0515 55.9396C20.7731 54.8125 21.2733 52.5433 20.0711 51.3409Z" fill="url(#paint2_linear)"/>
<path d="M38.5345 17.4143C36.6002 16.541 34.3877 16.2017 32.105 16.575C31.9125 16.6064 31.7195 16.6339 31.5268 16.6633C32.3255 16.8311 33.0958 17.0844 33.8263 17.4143C38.4437 19.5002 40.9888 24.5271 40.1495 29.5223L37.5025 45.2727C36.5363 50.5706 33.3088 54.9726 28.9252 57.5541C27.9464 58.1304 26.8942 58.5287 25.8071 58.7591C28.4808 59.2987 31.2712 58.9453 33.6335 57.5541C38.017 54.9727 41.2444 50.5706 42.2108 45.2727L44.8577 29.5223C45.697 24.527 43.1519 19.5002 38.5345 17.4143Z" fill="url(#paint3_linear)"/>
<defs>
<linearGradient id="paint0_linear" x1="13.9946" y1="11.2161" x2="24.4885" y2="11.2161" gradientUnits="userSpaceOnUse">
<stop stop-color="#A79BA7"/>
<stop offset="0.7487" stop-color="#7A6D79"/>
<stop offset="1" stop-color="#685E68"/>
</linearGradient>
<linearGradient id="paint1_linear" x1="2.58741" y1="37.7125" x2="42.6684" y2="37.7125" gradientUnits="userSpaceOnUse">
<stop stop-color="#FE99A0"/>
<stop offset="0.593" stop-color="#EF2D3B"/>
<stop offset="1" stop-color="#EF2D3B"/>
</linearGradient>
<linearGradient id="paint2_linear" x1="-7.10124" y1="45.1231" x2="36.2007" y2="45.1231" gradientUnits="userSpaceOnUse">
<stop stop-color="#FE99A0"/>
<stop offset="0.593" stop-color="#FE646F"/>
<stop offset="1" stop-color="#E41F2D"/>
</linearGradient>
<linearGradient id="paint3_linear" x1="26.9112" y1="37.7123" x2="44.0144" y2="37.7123" gradientUnits="userSpaceOnUse">
<stop stop-color="#FE646F"/>
<stop offset="0.7043" stop-color="#E41F2D"/>
<stop offset="1" stop-color="#C41926"/>
</linearGradient>
</defs>
</svg>
