<svg width="58" height="60" viewBox="0 0 58 60" fill="none" xmlns="http://www.w3.org/2000/svg">
<path d="M0.882734 57.0321L3.07321 59.2226C4.10956 60.2589 5.78991 60.2589 6.82627 59.2226L17.5554 48.4934L11.6119 42.55L0.882734 53.2792C-0.15362 54.3154 -0.15362 55.9958 0.882734 57.0321Z" fill="url(#paint0_linear)"/>
<path d="M17.556 48.4935L6.82673 59.2228C5.79049 60.259 4.11037 60.259 3.07402 59.2228L0.987549 57.1363C2.02414 58.1729 3.70367 58.1729 4.74026 57.1363L8.90143 52.9752C9.77426 52.1023 9.77426 50.6873 8.90143 49.8144L6.62414 47.5372L11.6118 42.5495L17.556 48.4935Z" fill="url(#paint1_linear)"/>
<path d="M8.29757 45.1583L17.483 54.3437C18.7476 55.6083 20.7979 55.6083 22.0626 54.3437L25.1932 51.2132L8.89204 34.9121L8.29745 35.5067C5.63228 38.1718 5.63227 42.493 8.29757 45.1583Z" fill="url(#paint2_linear)"/>
<path d="M55.8954 10.8593L46.71 1.67387C45.4454 0.409286 43.395 0.409286 42.1303 1.67387L38.9998 4.80446L55.3008 21.1055L55.8954 20.5109C58.5606 17.8458 58.5606 13.5245 55.8954 10.8593Z" fill="url(#paint3_linear)"/>
<path d="M55.8954 10.8593L52.558 7.52188C55.2233 10.1872 55.2233 14.5083 52.558 17.1736L51.9634 17.7682L55.3008 21.1056L55.8954 20.5111C58.5606 17.8458 58.5606 13.5245 55.8954 10.8593Z" fill="url(#paint4_linear)"/>
<path d="M16.5937 53.2891L8.31926 37.9597C7.19514 35.8772 7.57149 33.3038 9.2449 31.6304C11.7046 29.1707 15.8393 29.7754 17.4915 32.8365L25.766 48.1659C26.8901 50.2484 26.5137 52.8218 24.8403 54.4952C22.3807 56.9547 18.246 56.35 16.5937 53.2891Z" fill="url(#paint5_linear)"/>
<path d="M25.766 48.1658L17.4915 32.8364C16.8417 31.6325 15.8073 30.8105 14.6423 30.4034L22.4286 44.8284C23.5527 46.9108 23.1763 49.4842 21.5029 51.1577C20.0107 52.6499 17.9025 53.0122 16.1055 52.3845L16.5937 53.2889C18.246 56.3499 22.3807 56.9546 24.8403 54.4951C26.5138 52.8217 26.8901 50.2482 25.766 48.1658Z" fill="url(#paint6_linear)"/>
<path d="M24.1206 45.7621L15.8461 30.4327C14.722 28.3502 15.0983 25.7768 16.7718 24.1034C19.2314 21.6438 23.3661 22.2485 25.0183 25.3095L33.2928 40.6389C34.4169 42.7214 34.0406 45.2948 32.3672 46.9682C29.9075 49.4277 25.7728 48.823 24.1206 45.7621Z" fill="url(#paint7_linear)"/>
<path d="M33.2928 40.6388L25.0184 25.3094C24.3686 24.1056 23.3341 23.2836 22.1692 22.8765L29.9554 37.3014C31.0796 39.3839 30.7032 41.9573 29.0298 43.6307C27.5375 45.123 25.4293 45.4853 23.6324 44.8575L24.1206 45.762C25.7728 48.823 29.9076 49.4277 32.3672 46.9681C34.0406 45.2948 34.417 42.7213 33.2928 40.6388Z" fill="url(#paint8_linear)"/>
<path d="M31.6477 38.2352L23.3732 22.9058C22.2491 20.8233 22.6254 18.2499 24.2989 16.5765C26.7585 14.1168 30.8932 14.7215 32.5454 17.7826L40.8199 33.112C41.944 35.1945 41.5677 37.7679 39.8943 39.4413C37.4346 41.9008 33.2999 41.2961 31.6477 38.2352Z" fill="url(#paint9_linear)"/>
<path d="M40.8197 33.1119L32.5452 17.7825C31.8955 16.5786 30.861 15.7566 29.696 15.3495L37.4823 29.7745C38.6064 31.8569 38.23 34.4304 36.5566 36.1038C35.0644 37.596 32.9562 37.9585 31.1592 37.3306L31.6475 38.2351C33.2997 41.296 37.4344 41.9007 39.8941 39.4412C41.5675 37.7679 41.9438 35.1944 40.8197 33.1119Z" fill="url(#paint10_linear)"/>
<path d="M39.1745 30.7082L30.9001 15.3788C29.7759 13.2964 30.1523 10.7229 31.8257 9.04954C34.2854 6.58989 38.4201 7.1946 40.0723 10.2557L48.3468 25.5851C49.4709 27.6675 49.0945 30.2409 47.4211 31.9144C44.9615 34.3739 40.8268 33.7692 39.1745 30.7082Z" fill="url(#paint11_linear)"/>
<path d="M48.3468 25.5849L40.0723 10.2555C39.4226 9.05163 38.3881 8.22963 37.2231 7.82257L45.0094 22.2475C46.1335 24.33 45.7571 26.9034 44.0837 28.5768C42.5915 30.069 40.4833 30.4315 38.6863 29.8036L39.1746 30.7081C40.8268 33.769 44.9615 34.3738 47.4211 31.9142C49.0946 30.2409 49.4709 27.6675 48.3468 25.5849Z" fill="url(#paint12_linear)"/>
<path d="M46.7014 23.1813L38.4269 7.85176C37.3028 5.76929 37.6792 3.19588 39.3526 1.52247C41.8122 -0.93718 45.9469 -0.332474 47.5992 2.72859L55.8736 18.058C56.9977 20.1405 56.6214 22.7139 54.948 24.3873C52.4883 26.8469 48.3536 26.2422 46.7014 23.1813Z" fill="url(#paint13_linear)"/>
<path d="M55.8736 18.058L47.5992 2.72857C46.9494 1.52468 45.9149 0.702683 44.75 0.295624L52.5362 14.7206C53.6604 16.803 53.284 19.3764 51.6106 21.0499C50.1184 22.5421 48.0101 22.9045 46.2132 22.2767L46.7014 23.1812C48.3536 26.2421 52.4884 26.8468 54.948 24.3873C56.6214 22.714 56.9978 20.1406 55.8736 18.058Z" fill="url(#paint14_linear)"/>
<defs>
<linearGradient id="paint0_linear" x1="5.416" y1="48.9371" x2="11.1858" y2="54.7069" gradientUnits="userSpaceOnUse">
<stop stop-color="#FFF3DE"/>
<stop offset="0.593" stop-color="#FFD15B"/>
<stop offset="1" stop-color="#FE7D43"/>
</linearGradient>
<linearGradient id="paint1_linear" x1="0.464849" y1="43.9856" x2="12.1621" y2="55.6828" gradientUnits="userSpaceOnUse">
<stop stop-color="#FFF3DE"/>
<stop offset="0.593" stop-color="#FFD15B"/>
<stop offset="1" stop-color="#FE7D43"/>
</linearGradient>
<linearGradient id="paint2_linear" x1="5.43675" y1="36.8653" x2="22.492" y2="53.9206" gradientUnits="userSpaceOnUse">
<stop stop-color="#F6A6D2"/>
<stop offset="0.593" stop-color="#EF2D3B"/>
<stop offset="1" stop-color="#EF2D3B"/>
</linearGradient>
<linearGradient id="paint3_linear" x1="40.5847" y1="0.967867" x2="57.038" y2="17.4211" gradientUnits="userSpaceOnUse">
<stop stop-color="#F6A6D2"/>
<stop offset="0.593" stop-color="#EF2D3B"/>
<stop offset="1" stop-color="#EF2D3B"/>
</linearGradient>
<linearGradient id="paint4_linear" x1="37.099" y1="-2.51739" x2="55.2018" y2="15.5854" gradientUnits="userSpaceOnUse">
<stop stop-color="#F6A6D2"/>
<stop offset="0.593" stop-color="#EF2D3B"/>
<stop offset="1" stop-color="#EF2D3B"/>
</linearGradient>
<linearGradient id="paint5_linear" x1="7.58449" y1="33.5935" x2="26.1331" y2="52.1421" gradientUnits="userSpaceOnUse">
<stop stop-color="#D4F2F6"/>
<stop offset="0.6075" stop-color="#008CE6"/>
<stop offset="1" stop-color="#0290CF"/>
<stop offset="1" stop-color="#008CE6"/>
</linearGradient>
<linearGradient id="paint6_linear" x1="2.36822" y1="28.3781" x2="24.3963" y2="50.4061" gradientUnits="userSpaceOnUse">
<stop stop-color="#D4F2F6"/>
<stop offset="0.6075" stop-color="#008CE6"/>
<stop offset="1" stop-color="#008CE6"/>
</linearGradient>
<linearGradient id="paint7_linear" x1="14.6418" y1="25.5992" x2="34.1703" y2="45.1277" gradientUnits="userSpaceOnUse">
<stop stop-color="#F6A6D2"/>
<stop offset="0.593" stop-color="#EF2D3B"/>
<stop offset="1" stop-color="#EF2D3B"/>
</linearGradient>
<linearGradient id="paint8_linear" x1="11.0612" y1="22.0196" x2="31.0336" y2="41.992" gradientUnits="userSpaceOnUse">
<stop stop-color="#F6A6D2"/>
<stop offset="0.593" stop-color="#EF2D3B"/>
<stop offset="1" stop-color="#EF2D3B"/>
</linearGradient>
<linearGradient id="paint9_linear" x1="22.5425" y1="18.4482" x2="42.2178" y2="38.1235" gradientUnits="userSpaceOnUse">
<stop stop-color="#D4F2F6"/>
<stop offset="0.6075" stop-color="#008CE6"/>
<stop offset="1" stop-color="#008CE6"/>
</linearGradient>
<linearGradient id="paint10_linear" x1="17.4197" y1="13.3265" x2="39.4477" y2="35.3545" gradientUnits="userSpaceOnUse">
<stop stop-color="#D4F2F6"/>
<stop offset="0.6075" stop-color="#008CE6"/>
<stop offset="1" stop-color="#008CE6"/>
</linearGradient>
<linearGradient id="paint11_linear" x1="29.5061" y1="10.3604" x2="49.6582" y2="30.5125" gradientUnits="userSpaceOnUse">
<stop stop-color="#F6A6D2"/>
<stop offset="0.593" stop-color="#EF2D3B"/>
<stop offset="1" stop-color="#EF2D3B"/>
</linearGradient>
<linearGradient id="paint12_linear" x1="26.1129" y1="6.96795" x2="46.0853" y2="26.9403" gradientUnits="userSpaceOnUse">
<stop stop-color="#F6A6D2"/>
<stop offset="0.593" stop-color="#EF2D3B"/>
<stop offset="1" stop-color="#EF2D3B"/>
</linearGradient>
<linearGradient id="paint13_linear" x1="36.8445" y1="2.6472" x2="56.9338" y2="22.7366" gradientUnits="userSpaceOnUse">
<stop stop-color="#D4F2F6"/>
<stop offset="0.6075" stop-color="#008CE6"/>
<stop offset="1" stop-color="#008CE6"/>
</linearGradient>
<linearGradient id="paint14_linear" x1="32.4714" y1="-1.72517" x2="54.4994" y2="20.3029" gradientUnits="userSpaceOnUse">
<stop stop-color="#D4F2F6"/>
<stop offset="0.6075" stop-color="#008CE6"/>
<stop offset="1" stop-color="#008CE6"/>
</linearGradient>
</defs>
</svg>
